<?xml version="1.0" standalone="no"?>
<!DOCTYPE svg PUBLIC "-//W3C//DTD SVG 20010904//EN"
 "http://www.w3.org/TR/2001/REC-SVG-20010904/DTD/svg10.dtd">
<svg version="1.0" xmlns="http://www.w3.org/2000/svg"
 width="300.000000pt" height="300.000000pt" viewBox="0 0 300.000000 300.000000"
 preserveAspectRatio="xMidYMid meet">
<metadata>
Created by potrace 1.11, written by Peter Selinger 2001-2013
</metadata>
<g transform="translate(0.000000,300.000000) scale(0.100000,-0.100000)"
fill="#000000" stroke="none">
<path d="M1340 2539 c-124 -27 -164 -41 -258 -88 -74 -37 -257 -158 -257 -170
0 -4 -22 -34 -50 -65 -228 -263 -313 -475 -308 -764 5 -273 109 -504 319 -716
55 -54 99 -103 99 -108 0 -17 237 -135 333 -167 122 -40 137 -42 293 -46 177
-4 295 20 453 95 304 143 520 434 566 762 7 46 15 104 20 130 4 26 6 100 5
165 -10 482 -349 878 -837 977 -96 19 -276 17 -378 -5z m318 -24 c31 -3 93
-15 137 -27 86 -22 254 -98 275 -123 7 -8 18 -15 25 -15 26 0 204 -182 258
-263 53 -81 115 -213 136 -292 17 -63 12 -75 -8 -19 -52 144 -143 275 -285
411 -103 99 -147 132 -246 185 -158 84 -306 118 -493 113 -121 -3 -155 -6
-227 -20 -51 -10 5 13 73 30 123 30 220 36 355 20z m-63 -59 c51 -8 118 -26
114 -30 -2 -2 -29 0 -59 4 -143 20 -329 4 -462 -40 -66 -22 -213 -97 -249
-127 -11 -10 -30 -26 -42 -36 -97 -80 -230 -247 -261 -329 -6 -15 -14 -28 -18
-28 -24 0 89 208 157 289 95 113 248 210 410 260 136 42 292 56 410 37z m255
-66 c0 -5 -2 -10 -4 -10 -3 0 -8 5 -11 10 -3 6 -1 10 4 10 6 0 11 -4 11 -10z
m341 -232 c76 -69 197 -266 224 -364 5 -16 9 -33 11 -39 30 -106 42 -201 39
-310 -4 -119 -7 -135 -35 -237 -40 -143 -108 -268 -198 -361 -56 -58 -123
-112 -108 -89 4 7 3 12 -3 12 -5 0 -11 -3 -13 -8 -12 -28 -143 -113 -208 -135
-8 -3 -32 -12 -52 -21 -21 -9 -38 -13 -38 -8 0 4 30 21 67 37 85 37 194 110
261 174 29 27 52 46 52 42 0 -4 -13 -20 -30 -36 -34 -32 -42 -59 -9 -29 70 63
160 209 213 346 54 140 74 249 70 388 -7 267 -117 504 -317 685 -61 55 -61 56
-12 21 28 -19 66 -50 86 -68z m-1647 -393 c-20 -88 -24 -128 -25 -292 -1 -144
6 -211 36 -323 8 -30 13 -56 11 -58 -7 -7 -47 136 -62 223 -18 98 -14 296 6
370 33 121 42 147 45 143 2 -2 -3 -30 -11 -63z m1904 30 c-3 -3 -9 2 -12 12
-6 14 -5 15 5 6 7 -7 10 -15 7 -18z m18 -50 c22 -54 46 -173 49 -249 3 -89
-36 -286 -57 -286 -5 0 -6 5 -2 12 45 72 41 408 -6 532 -14 39 -1 31 16 -9z
m-1844 -645 c22 -47 50 -99 64 -117 13 -17 24 -34 24 -37 0 -21 150 -171 230
-230 106 -79 281 -157 380 -172 19 -3 42 -8 50 -11 30 -12 273 -10 326 2 59
13 70 11 27 -6 -81 -32 -290 -52 -368 -36 -11 3 -40 8 -65 12 -158 25 -354
125 -476 241 -98 94 -193 259 -234 405 -22 81 -24 97 -8 59 6 -14 28 -63 50
-110z m1812 -76 c-80 -174 -213 -331 -359 -425 -67 -43 -201 -105 -275 -127
-131 -39 -296 -47 -441 -21 -119 21 -142 33 -44 22 125 -13 263 -10 375 10 42
8 183 57 220 77 19 10 49 25 67 34 33 15 135 87 164 115 191 185 240 243 300
362 38 75 33 39 -7 -47z m-649 -434 c-11 -5 -27 -9 -35 -9 -9 0 -8 4 5 9 11 5
27 9 35 9 9 0 8 -4 -5 -9z m105 -15 c-14 -8 -29 -14 -35 -14 -5 0 1 6 15 14
14 8 30 14 35 14 6 0 -1 -6 -15 -14z"/>
<path d="M717 2196 c-157 -157 -266 -363 -295 -559 -13 -95 -7 -317 12 -387
52 -199 149 -369 285 -498 71 -68 149 -127 157 -119 3 3 -10 16 -29 29 -116
78 -227 204 -301 339 -41 75 -90 204 -101 264 -4 22 -9 51 -11 65 -22 126 -6
315 38 450 50 154 133 286 260 413 48 48 84 87 79 87 -5 0 -47 -38 -94 -84z"/>
</g>
</svg>
